{"title":"The Game Plan 2007 BRRip H264 AAC-Rx(Phoenix-RG)","uid":5797072,"size":1915322643,"categoryP":"video","categoryS":"hd___movies","magnet":"?xt=urn:btih:0cb0a7843399cc6ff04b7bbe5a4426a98dddf372&amp;dn=The+Game+Plan+2007+BRRip+H264+AAC-Rx%28Phoenix-RG%29&amp;tr=udp%3A%2F%2Ftracker.openbittorrent.com%3A80&amp;tr=udp%3A%2F%2Fopen.demonii.com%3A1337&amp;tr=udp%3A%2F%2Ftracker.coppersurfer.tk%3A6969&amp;tr=udp%3A%2F%2Fexodus.desync.com%3A6969","seeders":0,"leechers":1,"uploader":"rev-x","files":8,"time":1283099593,"description":"The Game Plan 2007 BRRip H264 AAC-Rx(Phoenix-RG).mp4\n      Format : MPEG-4 / AVC\n      File size : 1.78 GiB\n      Duration : 1h 50mn\n      Format profile : &lt;a class=&quot;__cf_email__&quot; href=&quot;/cdn-cgi/l/email-protection&quot; data-cfemail=&quot;561e3f313e161a627867&quot;&gt;[email&amp;#160;protected]&lt;/a&gt;&lt;script data-cfhash='f9e31' type=&quot;text/javascript&quot;&gt;\n/* &lt;![CDATA[ */!function(){try{var t=&quot;currentScript&quot;in document?document.currentScript:function(){for(var t=document.getElementsByTagName(&quot;script&quot;),e=t.length;e--;)if(t[e].getAttribute(&quot;data-cfhash&quot;))return t[e]}();if(t&amp;&amp;t.previousSibling){var e,r,n,i,c=t.previousSibling,a=c.getAttribute(&quot;data-cfemail&quot;);if(a){for(e=&quot;&quot;,r=parseInt(a.substr(0,2),16),n=2;a.length-n;n+=2)i=parseInt(a.substr(n,2),16)^r,e+=String.fromCharCode(i);e=document.createTextNode(e),c.parentNode.replaceChild(e,c)}t.parentNode.removeChild(t);}}catch(u){}}()/* ]]&gt; */&lt;/script&gt;\n      Bit rate : 2 000 Kbps\n      Width : 1 280 pixels\n      Height : 536 pixels\n      Display aspect ratio : 2.35\n      Frame rate : 23.976 fps\n      Resolution : 24 bits\n      Colorimetry : 4:2:0\n      Scan type : Progressive\n      Bits/(Pixel*Frame) : 0.122\n      Stream size : 1.54 GiB (86%)\n      \nAUDIO:\n     \n      Format : AAC / LC\n      Format/Info : Advanced Audio Codec\n      Duration : 1h 50mn\n      Bit rate : 314 Kbps\n      Channel(s) : 6 channels\n      Channel positions : Front: L C R, Rear: L R, LFE\n      Sampling rate : 48.0 KHz\n      Resolution : 16 bits\n      Stream size : 248 MiB (14%)\n\nSCREEN:\n &lt;a href=&quot;\nhttp://img94.imageshack.us/img94/3770/vlcsnap2010082906h37m37.jpg&quot; rel=&quot;nofollow&quot; target=&quot;_NEW&quot;&gt;\nhttp://img94.imageshack.us/img94/3770/vlcsnap2010082906h37m37.jpg&lt;/a&gt;\n &lt;a href=&quot;\nhttp://img291.imageshack.us/img291/9850/vlcsnap2010082906h37m49.jpg&quot; rel=&quot;nofollow&quot; target=&quot;_NEW&quot;&gt;\nhttp://img291.imageshack.us/img291/9850/vlcsnap2010082906h37m49.jpg&lt;/a&gt;\n &lt;a href=&quot;\nhttp://img4.imageshack.us/img4/5720/vlcsnap2010082906h36m49.jpg&quot; rel=&quot;nofollow&quot; target=&quot;_NEW&quot;&gt;\nhttp://img4.imageshack.us/img4/5720/vlcsnap2010082906h36m49.jpg&lt;/a&gt;","torrent":{"xt":"urn:btih:0cb0a7843399cc6ff04b7bbe5a4426a98dddf372","amp;dn":"The+Game+Plan+2007+BRRip+H264+AAC-Rx%28Phoenix-RG%29","amp;tr":["udp%3A%2F%2Ftracker.openbittorrent.com%3A80","udp%3A%2F%2Fopen.demonii.com%3A1337","udp%3A%2F%2Ftracker.coppersurfer.tk%3A6969","udp%3A%2F%2Fexodus.desync.com%3A6969"],"infoHash":"0cb0a7843399cc6ff04b7bbe5a4426a98dddf372","infoHashBuffer":{"type":"Buffer","data":[12,176,167,132,51,153,204,111,240,75,123,190,90,68,38,169,141,221,243,114]},"announce":[],"urlList":[]}}